<mxfile host="app.diagrams.net" modified="2024-01-28T00:58:24.211Z" agent="Mozilla/5.0 (Windows NT 10.0; Win64; x64) AppleWebKit/537.36 (KHTML, like Gecko) Chrome/121.0.0.0 Safari/537.36 Edg/121.0.0.0" etag="FDwPuc4GczG5v1pWuPOm" version="21.7.5" type="device">
  <diagram name="Page-1" id="Ukdwe-AOjFE7LQ4m1wEr">
    <mxGraphModel dx="1779" dy="1238" grid="0" gridSize="10" guides="1" tooltips="1" connect="1" arrows="1" fold="1" page="0" pageScale="1" pageWidth="850" pageHeight="1100" math="0" shadow="0">
      <root>
        <mxCell id="0" />
        <mxCell id="1" parent="0" />
        <mxCell id="eLm1B6Lgre6IVELJ8hRV-1" value="" style="rounded=0;whiteSpace=wrap;html=1;fontSize=16;" vertex="1" parent="1">
          <mxGeometry x="-172" y="-117" width="856" height="546" as="geometry" />
        </mxCell>
        <mxCell id="eLm1B6Lgre6IVELJ8hRV-2" value="Docker" style="text;html=1;strokeColor=none;fillColor=none;align=center;verticalAlign=middle;whiteSpace=wrap;rounded=0;fontSize=16;" vertex="1" parent="1">
          <mxGeometry x="-172" y="-150" width="60" height="30" as="geometry" />
        </mxCell>
        <mxCell id="eLm1B6Lgre6IVELJ8hRV-3" value="" style="rounded=0;whiteSpace=wrap;html=1;fontSize=16;" vertex="1" parent="1">
          <mxGeometry x="-83" y="110" width="130" height="60" as="geometry" />
        </mxCell>
        <mxCell id="eLm1B6Lgre6IVELJ8hRV-4" value="Banco de Dados" style="text;html=1;strokeColor=none;fillColor=none;align=center;verticalAlign=middle;whiteSpace=wrap;rounded=0;fontSize=16;" vertex="1" parent="1">
          <mxGeometry x="-83" y="80" width="130" height="30" as="geometry" />
        </mxCell>
        <mxCell id="eLm1B6Lgre6IVELJ8hRV-6" value="" style="rounded=0;whiteSpace=wrap;html=1;fontSize=16;" vertex="1" parent="1">
          <mxGeometry x="132" y="113" width="130" height="60" as="geometry" />
        </mxCell>
        <mxCell id="eLm1B6Lgre6IVELJ8hRV-7" value="BackEnd" style="text;html=1;strokeColor=none;fillColor=none;align=center;verticalAlign=middle;whiteSpace=wrap;rounded=0;fontSize=16;" vertex="1" parent="1">
          <mxGeometry x="132" y="83" width="130" height="30" as="geometry" />
        </mxCell>
        <mxCell id="eLm1B6Lgre6IVELJ8hRV-8" value="" style="rounded=0;whiteSpace=wrap;html=1;fontSize=16;" vertex="1" parent="1">
          <mxGeometry x="394" y="116" width="130" height="60" as="geometry" />
        </mxCell>
        <mxCell id="eLm1B6Lgre6IVELJ8hRV-9" value="FrontEnd" style="text;html=1;strokeColor=none;fillColor=none;align=center;verticalAlign=middle;whiteSpace=wrap;rounded=0;fontSize=16;" vertex="1" parent="1">
          <mxGeometry x="394" y="86" width="130" height="30" as="geometry" />
        </mxCell>
        <mxCell id="eLm1B6Lgre6IVELJ8hRV-10" value="" style="endArrow=none;html=1;rounded=0;fontSize=12;startSize=8;endSize=8;curved=1;" edge="1" parent="1">
          <mxGeometry width="50" height="50" relative="1" as="geometry">
            <mxPoint x="-87" y="292" as="sourcePoint" />
            <mxPoint x="237" y="293" as="targetPoint" />
          </mxGeometry>
        </mxCell>
        <mxCell id="eLm1B6Lgre6IVELJ8hRV-11" value="Rede interna" style="edgeLabel;html=1;align=center;verticalAlign=middle;resizable=0;points=[];fontSize=16;" vertex="1" connectable="0" parent="eLm1B6Lgre6IVELJ8hRV-10">
          <mxGeometry x="0.3765" relative="1" as="geometry">
            <mxPoint as="offset" />
          </mxGeometry>
        </mxCell>
        <mxCell id="eLm1B6Lgre6IVELJ8hRV-12" value="" style="endArrow=none;dashed=1;html=1;rounded=0;fontSize=12;startSize=8;endSize=8;curved=1;entryX=0.5;entryY=1;entryDx=0;entryDy=0;" edge="1" parent="1" target="eLm1B6Lgre6IVELJ8hRV-3">
          <mxGeometry width="50" height="50" relative="1" as="geometry">
            <mxPoint x="-15" y="290" as="sourcePoint" />
            <mxPoint x="265" y="336" as="targetPoint" />
          </mxGeometry>
        </mxCell>
        <mxCell id="eLm1B6Lgre6IVELJ8hRV-13" value="" style="endArrow=none;dashed=1;html=1;dashPattern=1 3;strokeWidth=2;rounded=0;fontSize=12;startSize=8;endSize=8;curved=1;entryX=0.5;entryY=1;entryDx=0;entryDy=0;" edge="1" parent="1" target="eLm1B6Lgre6IVELJ8hRV-6">
          <mxGeometry width="50" height="50" relative="1" as="geometry">
            <mxPoint x="199" y="292" as="sourcePoint" />
            <mxPoint x="265" y="336" as="targetPoint" />
          </mxGeometry>
        </mxCell>
        <mxCell id="eLm1B6Lgre6IVELJ8hRV-14" value="Interação com&amp;nbsp;&lt;br&gt;Banco de Dados" style="edgeLabel;html=1;align=center;verticalAlign=middle;resizable=0;points=[];fontSize=16;" vertex="1" connectable="0" parent="eLm1B6Lgre6IVELJ8hRV-13">
          <mxGeometry x="0.0412" y="-3" relative="1" as="geometry">
            <mxPoint as="offset" />
          </mxGeometry>
        </mxCell>
        <mxCell id="eLm1B6Lgre6IVELJ8hRV-15" value="" style="endArrow=none;html=1;rounded=0;fontSize=12;startSize=8;endSize=8;curved=1;" edge="1" parent="1">
          <mxGeometry width="50" height="50" relative="1" as="geometry">
            <mxPoint x="160" y="-26" as="sourcePoint" />
            <mxPoint x="529" y="-30" as="targetPoint" />
          </mxGeometry>
        </mxCell>
        <mxCell id="eLm1B6Lgre6IVELJ8hRV-22" value="Rede Externa" style="edgeLabel;html=1;align=center;verticalAlign=middle;resizable=0;points=[];fontSize=16;" vertex="1" connectable="0" parent="eLm1B6Lgre6IVELJ8hRV-15">
          <mxGeometry x="0.409" y="-3" relative="1" as="geometry">
            <mxPoint as="offset" />
          </mxGeometry>
        </mxCell>
        <mxCell id="eLm1B6Lgre6IVELJ8hRV-16" value="Actor" style="shape=umlActor;verticalLabelPosition=bottom;verticalAlign=top;html=1;outlineConnect=0;fontSize=16;" vertex="1" parent="1">
          <mxGeometry x="432" y="-210" width="30" height="60" as="geometry" />
        </mxCell>
        <mxCell id="eLm1B6Lgre6IVELJ8hRV-17" value="" style="endArrow=classic;startArrow=classic;html=1;rounded=0;fontSize=12;startSize=8;endSize=8;curved=1;" edge="1" parent="1" target="eLm1B6Lgre6IVELJ8hRV-16">
          <mxGeometry width="50" height="50" relative="1" as="geometry">
            <mxPoint x="346" y="-32" as="sourcePoint" />
            <mxPoint x="225" y="37" as="targetPoint" />
          </mxGeometry>
        </mxCell>
        <mxCell id="eLm1B6Lgre6IVELJ8hRV-18" value="" style="endArrow=classic;startArrow=classic;html=1;rounded=0;fontSize=12;startSize=8;endSize=8;curved=1;exitX=1;exitY=0;exitDx=0;exitDy=0;" edge="1" parent="1" source="eLm1B6Lgre6IVELJ8hRV-6">
          <mxGeometry width="50" height="50" relative="1" as="geometry">
            <mxPoint x="175" y="87" as="sourcePoint" />
            <mxPoint x="303" y="-25" as="targetPoint" />
          </mxGeometry>
        </mxCell>
        <mxCell id="eLm1B6Lgre6IVELJ8hRV-21" value="" style="endArrow=classic;startArrow=classic;html=1;rounded=0;fontSize=12;startSize=8;endSize=8;curved=1;exitX=0;exitY=0;exitDx=0;exitDy=0;" edge="1" parent="1" source="eLm1B6Lgre6IVELJ8hRV-8">
          <mxGeometry width="50" height="50" relative="1" as="geometry">
            <mxPoint x="272" y="123" as="sourcePoint" />
            <mxPoint x="359" y="-25" as="targetPoint" />
          </mxGeometry>
        </mxCell>
      </root>
    </mxGraphModel>
  </diagram>
</mxfile>
